<?xml version="1.0" encoding="utf-8" ?>
<svg xmlns="http://www.w3.org/2000/svg" xmlns:ev="http://www.w3.org/2001/xml-events" xmlns:xlink="http://www.w3.org/1999/xlink" baseProfile="full" height="191.93566725482796cm" version="1.1" viewBox="-2.446613804771193 -26.56015687307505 247.61705080774854 191.93566725482796" width="247.61705080774854cm">
  <defs/>
  <path d="M 60.19295896890273,17.65765289459071 C -22.18055452710263,-32.92652995792038 96.47270344619398,9.717646048476709 64.21810623501855,16.316849419204914 C 51.303363174178436,18.04221903183109 81.77344931752857,18.282721110056034 20.827925269562982,20.979936074439973 C 14.396293159539354,11.454102808669765 13.709860512553547,0.007561479807579152 10.0,0.0 C 74.72469508958255,-29.49876572798364 57.15864874623232,22.41346047969051 60.19295896890273,17.65765289459071" fill="rgb(255,255,255)" stroke="rgb(51,51,51)" stroke-width="0.2"/>
  <path d="M 106.70059700239206,8.284990781732859 C 116.8820575810218,20.70013921494276 109.2348321564448,11.151894299166496 113.42941254715097,15.712285753747693 C 113.4295413744464,18.16562531051255 116.58157917804527,13.049973662738273 119.01597217223065,23.123872133481527 C 129.27168176362073,14.089152219647008 85.45114682382528,53.51235891571864 88.03321103054617,29.255307229899486 C 86.61088004592216,28.50075324580041 91.34634210870264,31.213929864648513 84.69429025014637,26.95718892061765 C 63.63887626060725,15.421521932926595 52.36819779485931,1.314199453856011 79.92715176369,0.0 C 99.18956761882156,6.215616183683494 112.90907699834278,10.518259947504927 106.31832612193276,8.147793848231577 C 106.00242442439396,8.034416835334865 106.85709598437869,8.341158275060197 106.70059700239206,8.284990781732859" fill="rgb(255,255,255)" stroke="rgb(51,51,51)" stroke-width="0.2"/>
  <path d="M 200.0735424504359,17.46845165213189 C 30.44002612518277,-29.502655889241865 296.9184947646469,-9.169330084286987 221.32080753280195,11.207586679857265 C 195.57586428506548,23.95081904782655 230.40493689919333,4.994313429320336 200.0735424504359,17.46845165213189 C 167.97407297363338,9.520952010876607 290.8322592564998,21.064918692168828 153.9704860485801,6.710765114689522 C 158.47688679121967,10.908046777197221 142.75605786516195,-4.329217728643835 146.90190671412648,0.0 C 140.21343391525124,-53.95584046862825 335.2918963770006,44.50420437148004 153.9704860485801,6.710765114689522 C 98.33622559400834,-40.856498737577894 310.9823929760456,9.773277542315903 200.0735424504359,17.46845165213189" fill="rgb(255,255,255)" stroke="rgb(51,51,51)" stroke-width="0.2"/>
  <path d="M 16.072867089536416,149.77449658560226 C 16.80030799831964,149.77260754004635 17.81001732783872,149.92056907069443 19.204535187440985,150.13543747315106 C 34.624223026712514,171.51125894675405 29.004958256869223,57.36030712215718 15.495507119964875,97.00765048288737 C 17.470797156455674,95.48482516599938 5.702436988174827,100.46690049743768 10.0,98.5420615842246 C 3.989176456167441,99.59629655110237 12.797168116276033,97.36843110251202 18.563891058171542,95.80444272144919 C -12.968995744853633,200.04317134867705 56.73767114547625,109.13534751666242 10.0,98.5420615842246 C 1.7903108935470868,100.02545354788414 16.720117202962992,96.42080055057612 18.563891058171542,95.80444272144919 C 23.22095974476538,98.845975175458 20.259737699800965,96.91200033337908 21.077059041148544,97.4457931482565 C 8.47005104695954,99.24654451873177 3.9402927195276556,176.45556096218743 16.072867089536416,149.77449658560226" fill="rgb(255,255,255)" stroke="rgb(51,51,51)" stroke-width="0.2"/>
  <path d="M 40.92052104592,110.28255005050528 C 49.255595884566745,109.08583360703234 34.370082839273834,111.96160756448431 65.97824548413345,107.72867359552589 C 65.98601176091266,107.49989440910502 65.96912739861274,108.09399649055571 67.47217153324227,107.28249404292384 C 70.28532951781902,107.18439666110868 73.09785343557132,106.48135909469872 71.18467641633865,106.86814382950422 C 71.22527906642017,106.86679090545755 71.35414971134381,106.85550255026817 71.57128835110954,106.83427876393607 C 72.75414326462086,103.25475457429549 98.21682131205316,91.3215417088112 87.72546941928601,95.80444272144919 C 192.31192940680975,-8.434766876172375 -72.53300832999393,83.63868922211722 40.92052104592,110.28255005050528" fill="rgb(255,255,255)" stroke="rgb(51,51,51)" stroke-width="0.2"/>
</svg>
