<?xml version="1.0" encoding="utf-8" ?>
<svg xmlns="http://www.w3.org/2000/svg" xmlns:ev="http://www.w3.org/2001/xml-events" xmlns:xlink="http://www.w3.org/1999/xlink" baseProfile="full" height="131.33147275396914cm" version="1.1" viewBox="-42.1825421535375 -163.59910485419826 206.9699518968212 131.33147275396914" width="206.9699518968212cm">
  <defs/>
  <path d="M -1.8965206395258747,-147.92280666908886 C -41.853989003124276,-59.902604428325475 -14.282688898878803,-182.93489606553706 -3.727051128479893,-151.7501716376457 C -0.41041961013311123,-139.1498762443146 -3.9576295086493474,-169.41373741186356 6.291046941175985,-109.27559227026441 C -2.3618547987635736,-101.7102315726577 -13.634411153262135,-99.60690767775895 -13.180971156632268,-95.92485466781503 C -50.493072845453,-156.48284672069764 3.1994421865172527,-145.50290849158606 -1.8965206395258747,-147.92280666908886" fill="rgb(227,175,186)" stroke="rgb(51,51,51)" stroke-width="0.2"/>
  <path d="M 0.8394550623569508,-143.97279857263482 C 11.874744111076744,-155.63557893342488 3.364677183446368,-146.84764410474097 7.360998139538609,-151.58273583447675 C 9.794820618182776,-151.89157744409243 4.323197885221614,-154.37483714956724 14.010692247526073,-158.0575199528102 C 3.7572685213189807,-167.09483399157315 48.38122999308701,-128.58339970022035 23.992078645932622,-128.09257526956466 C 23.422500144722527,-126.58660134027487 25.518227861712624,-131.62583279450843 22.132377530172015,-124.49101290008102 C 13.337893469490815,-102.15138172075736 0.760941730043811,-89.19510812259708 -4.0106680630024485,-116.36963303184892 C -0.2683269737143483,-136.2610742136818 2.273734063392144,-150.41295064957353 0.7514513835808962,-143.57630219543677 C 0.6787267806925392,-143.2486448108168 0.8754831864270152,-144.13512137739593 0.8394550623569508,-143.97279857263482" fill="rgb(227,175,186)" stroke="rgb(51,51,51)" stroke-width="0.2"/>
  <path d="M 18.894449726243565,-42.14724327918583 C -153.5085148732319,-77.63009268344362 113.73374533280871,-75.22328012505727 39.67372537860801,-49.81968793812217 C 14.841874572270356,-35.377691554483974 48.320471263399014,-56.628502551182386 18.894449726243565,-42.14724327918583 C -13.66595257613919,-47.92295909169925 109.6899426649493,-44.648785497661336 -27.82654240592896,-49.78717282179531 C -23.048660603952364,-45.901729926316506 -39.756478284250385,-60.04978704046676 -35.32948288456627,-56.00851242079042 C -45.62331484834476,-109.39395437418112 155.62215380006165,-24.24556451953042 -27.82654240592896,-49.78717282179531 C -86.52717788080787,-93.51417731059769 129.0369948623727,-57.26705083180313 18.894449726243565,-42.14724327918583" fill="rgb(227,175,186)" stroke="rgb(51,51,51)" stroke-width="0.2"/>
  <path d="M 151.0199594934706,-155.99343606007739 C 150.29252105809582,-155.9907589340104 149.2826520252556,-156.13762649741346 147.8879022038095,-156.35098400653834 C 132.44506566708128,-177.71008783679812 138.18799390856657,-63.56529069637571 151.65448470432656,-103.22724641254977 C 149.68084559763216,-101.70228203573917 161.44380147020934,-106.69710383419277 157.14832627710817,-104.76761023537478 C 163.15800417578436,-105.82835647960219 154.35243126862628,-103.59095009758556 148.5874060759654,-102.02071518755807 C 180.0073461280859,-206.29354416555407 110.39920619874442,-115.31025614841747 157.14832627710817,-104.76761023537478 C 165.3564035157766,-106.25989539127312 150.43051111071463,-102.63907012896203 148.5874060759654,-102.02071518755807 C 143.9270450425391,-105.05720056683515 146.89036054402325,-103.12643493423207 146.07246139161822,-103.65934198122254 C 158.67751112248922,-105.47375024456443 163.1236215003801,-182.68762874563674 151.0199594934706,-155.99343606007739" fill="rgb(227,175,186)" stroke="rgb(51,51,51)" stroke-width="0.2"/>
  <path d="M 133.43895928016235,-98.63235022219385 C 125.13655151805904,-97.22677981709589 139.9451848214174,-100.47531089476927 108.45323959384777,-95.45026745682605 C 108.45121868979498,-95.22136540978144 108.45318429465765,-95.81570411899685 106.97098452041527,-94.96672725100063 C 104.161175497389,-94.79804353327117 101.36718584156101,-94.02462617450645 103.27005072938155,-94.45931451883875 C 103.22949483563515,-94.4569427938229 103.10094816577114,-94.44242302272318 102.88441071978953,-94.41575520553954 C 101.79178348595283,-90.80766639031918 76.63668242288917,-78.2390374616252 87.0121963702019,-82.98388480965426 C -14.92464375348439,23.847856989573216 247.5255645660278,-74.84485052085901 133.43895928016235,-98.63235022219385" fill="rgb(227,175,186)" stroke="rgb(51,51,51)" stroke-width="0.2"/>
</svg>
